<svg width="38" height="41" viewBox="0 0 38 41" fill="none" xmlns="http://www.w3.org/2000/svg">
<g clip-path="url(#clip0_0_75)">
<path d="M25.7353 14.0316C25.7212 13.929 25.6313 13.8722 25.557 13.8659C25.0089 13.8247 24.4609 13.7839 23.9128 13.7434C23.9128 13.7434 22.8225 12.6609 22.7028 12.5411C22.5831 12.4213 22.3492 12.4578 22.2585 12.4845C22.2451 12.4884 22.0202 12.5578 21.6483 12.6729C21.2841 11.6248 20.6413 10.6617 19.5104 10.6617C19.4792 10.6617 19.4471 10.663 19.415 10.6648C19.0933 10.2395 18.695 10.0547 18.3508 10.0547C15.7166 10.0547 14.4581 13.3478 14.0635 15.0212C13.0399 15.3384 12.3127 15.5639 12.2198 15.5931C11.6484 15.7723 11.6304 15.7903 11.5554 16.3287C11.4989 16.7363 10.0039 28.2977 10.0039 28.2977L21.6531 30.4803L27.9651 29.1149C27.9651 29.1149 25.7493 14.1343 25.7354 14.0316H25.7353ZM21.0044 12.872L20.0187 13.1771C20.0191 13.1077 20.0194 13.0393 20.0194 12.9646C20.0194 12.3132 19.929 11.7887 19.784 11.373C20.3666 11.4461 20.7547 12.1091 21.0044 12.872ZM19.0611 11.5021C19.2231 11.9081 19.3285 12.4906 19.3285 13.2767C19.3285 13.3169 19.3281 13.3537 19.3278 13.3909C18.6867 13.5894 17.9901 13.805 17.292 14.0213C17.684 12.5085 18.4188 11.7778 19.0611 11.5021ZM18.2785 10.7613C18.3922 10.7613 18.5067 10.7999 18.6163 10.8753C17.7721 11.2726 16.8672 12.2731 16.485 14.2712L14.8759 14.7696C15.3235 13.2455 16.3863 10.7613 18.2784 10.7613H18.2785Z" fill="#95BF46"/>
<path d="M25.5556 13.866C25.0076 13.8248 24.4595 13.7839 23.9115 13.7434C23.9115 13.7434 22.8211 12.661 22.7015 12.5411C22.6567 12.4966 22.5963 12.4737 22.5331 12.4639L21.6523 30.4803L27.9637 29.1149C27.9637 29.1149 25.7479 14.1344 25.734 14.0317C25.7199 13.929 25.6299 13.8722 25.5556 13.866Z" fill="#5E8E3E"/>
<path d="M19.5093 17.3538L18.731 19.669C18.731 19.669 18.0491 19.305 17.2132 19.305C15.9878 19.305 15.9262 20.074 15.9262 20.2678C15.9262 21.3252 18.6824 21.7303 18.6824 24.207C18.6824 26.1556 17.4465 27.4103 15.7801 27.4103C13.7804 27.4103 12.7578 26.1658 12.7578 26.1658L13.2932 24.3967C13.2932 24.3967 14.3444 25.2992 15.2314 25.2992C15.811 25.2992 16.0467 24.8428 16.0467 24.5094C16.0467 23.1302 13.7855 23.0686 13.7855 20.8022C13.7855 18.8947 15.1546 17.0488 17.9183 17.0488C18.9832 17.0488 19.5093 17.3538 19.5093 17.3538Z" fill="white"/>
</g>
<defs>
<clipPath id="clip0_0_75">
<rect width="18" height="20.5312" fill="white" transform="translate(10 10)"/>
</clipPath>
</defs>
</svg>
