<svg width="79" height="77" viewBox="0 0 79 77" fill="none" xmlns="http://www.w3.org/2000/svg">
<path fill-rule="evenodd" clip-rule="evenodd" d="M31.5524 1.37637e-06C34.2491 -0.00113861 36.8988 0.705891 39.2364 2.05035C41.574 3.39482 43.5176 5.32957 44.8726 7.66105L45.2499 8.3617L47.7061 6.94499C50.6358 5.25262 54.0414 4.57227 57.3966 5.00908C60.7517 5.44588 63.8696 6.97553 66.2684 9.36162C68.6672 11.7477 70.2134 14.8574 70.668 18.2102C71.1226 21.563 70.4603 24.9721 68.7836 27.9108L68.3485 28.6269L70.8047 30.0436C73.7343 31.7351 76.0254 34.3443 77.3241 37.468C78.6227 40.5917 78.8566 44.0561 77.9896 47.326C77.1226 50.5959 75.203 53.4893 72.5273 55.5592C69.8517 57.6292 66.5688 58.7605 63.186 58.7783L62.3506 58.7629V61.5963C62.3516 64.9832 61.236 68.276 59.1765 70.9648C57.117 73.6536 54.2285 75.5884 50.9582 76.4696C47.688 77.3509 44.2184 77.1294 41.0868 75.8395C37.9551 74.5496 35.3361 72.2632 33.6351 69.3344L33.2502 68.6337L30.7979 70.0504C27.8681 71.7428 24.4625 72.4232 21.1074 71.9863C17.7522 71.5495 14.6344 70.0199 12.2356 67.6338C9.83675 65.2477 8.29057 62.138 7.83595 58.7852C7.38133 55.4325 8.04359 52.0233 9.72037 49.0846L10.1554 48.3685L7.69924 46.9518C4.76961 45.2603 2.4785 42.6511 1.17987 39.5275C-0.118772 36.4038 -0.352669 32.9394 0.514312 29.6694C1.38129 26.3995 3.3009 23.5061 5.97658 21.4362C8.65226 19.3662 11.9351 18.2349 15.3179 18.2171L16.1533 18.2325V15.3991C16.1533 11.315 17.7757 7.39818 20.6636 4.51029C23.5515 1.6224 27.4683 1.37637e-06 31.5524 1.37637e-06ZM49.654 41.5275L49.3923 57.1575C49.3828 57.7373 49.2425 58.3075 48.9819 58.8254C48.7213 59.3434 48.347 59.7958 47.887 60.1488L47.4674 60.426L39.9372 64.7762C40.647 66.3301 41.853 67.6041 43.3655 68.398C44.8781 69.192 46.6116 69.461 48.2936 69.1626C49.9757 68.8643 51.5109 68.0156 52.6582 66.7499C53.8054 65.4841 54.4997 63.8731 54.6318 62.17L54.651 61.5963V44.5265L49.654 41.5275ZM41.8275 49.023L28.1608 56.607C27.5798 56.9296 26.9252 57.0963 26.2607 57.0909C25.5962 57.0855 24.9444 56.9082 24.3687 56.5762L16.8386 52.226C15.8156 53.6569 15.313 55.3948 15.4146 57.1509C15.5161 58.907 16.2156 60.5754 17.3967 61.8789C18.5778 63.1824 20.1695 64.0424 21.9071 64.3159C23.6447 64.5895 25.4236 64.2601 26.9481 63.3826L41.7312 54.8477L41.8275 49.023ZM52.1718 28.1765L47.0785 31.0061L60.4835 39.0444C61.0534 39.3868 61.525 39.8711 61.8522 40.4499C62.1794 41.0288 62.3511 41.6825 62.3506 42.3475V51.0441C64.0991 51.2093 65.8515 50.7723 67.3177 49.8056C68.784 48.8389 69.8761 47.4004 70.4132 45.7283C70.9504 44.0562 70.9003 42.2508 70.2714 40.611C69.6425 38.9713 68.4724 37.5955 66.9549 36.7114L52.1718 28.1765ZM16.1533 25.9475C14.4538 25.7822 12.7476 26.1863 11.3028 27.0963C9.85794 28.0062 8.75635 29.3704 8.17113 30.9745C7.5859 32.5785 7.55021 34.3316 8.06965 35.9582C8.58909 37.5847 9.63423 38.9926 11.0408 39.9606L11.549 40.2802L26.3321 48.8151L31.4254 45.9855L18.0205 37.9472C17.523 37.6486 17.0994 37.2415 16.7814 36.7561C16.4634 36.2708 16.2592 35.7199 16.1841 35.1446L16.1533 34.6479V25.9513V25.9475ZM31.5524 7.69954C29.5104 7.69954 27.552 8.51074 26.108 9.95469C24.6641 11.3986 23.8529 13.357 23.8529 15.3991V32.469L28.8499 35.4679L29.1117 19.8379C29.1224 19.1726 29.3053 18.5214 29.6427 17.9479C29.98 17.3744 30.4603 16.8982 31.0366 16.5656L38.5667 12.2192C37.9547 10.872 36.9679 9.72946 35.7241 8.92801C34.4803 8.12657 33.0321 7.7001 31.5524 7.69954ZM62.0734 16.4308C61.1045 14.7522 59.5381 13.5007 57.687 12.9262C55.8358 12.3517 53.8361 12.4965 52.0871 13.3318L51.5558 13.6128L36.7727 22.1477L36.6765 27.9724L50.3432 20.3884C50.8497 20.1068 51.4133 19.9433 51.9919 19.91C52.5705 19.8766 53.1492 19.9744 53.6848 20.1959L54.1352 20.4192L61.6692 24.7694C63.3708 22.3826 63.6326 19.1295 62.0734 16.4308Z" fill="white"/>
</svg>
