<svg width="7" height="7" viewBox="0 0 7 7" fill="none" xmlns="http://www.w3.org/2000/svg">
<path d="M2.44765 0.732659C2.80917 -0.244209 4.19083 -0.244209 4.55235 0.732659L4.83643 1.50026C4.95008 1.80737 5.19222 2.04951 5.49932 2.16316L6.26693 2.44724C7.2438 2.80876 7.2438 4.19042 6.26693 4.55194L5.49932 4.83601C5.19222 4.94967 4.95008 5.19181 4.83643 5.49891L4.55235 6.26652C4.19083 7.24339 2.80917 7.24339 2.44765 6.26652L2.16357 5.49891C2.04992 5.19181 1.80778 4.94967 1.50068 4.83601L0.73307 4.55194C-0.243798 4.19042 -0.243798 2.80876 0.73307 2.44724L1.50068 2.16316C1.80778 2.04951 2.04992 1.80737 2.16357 1.50026L2.44765 0.732659Z" fill="#324EFF"/>
</svg>
