<svg width="30" height="30" viewBox="0 0 30 30" fill="none" xmlns="http://www.w3.org/2000/svg">
<path d="M27.0411 8.30862C26.6484 7.39935 26.0821 6.57538 25.3741 5.88284C24.6655 5.18823 23.83 4.63623 22.9131 4.25686C21.9624 3.86192 20.9426 3.65977 19.9131 3.66214C18.4688 3.66214 17.0596 4.05764 15.835 4.80471C15.542 4.98343 15.2637 5.17971 15 5.39358C14.7364 5.17971 14.4581 4.98343 14.1651 4.80471C12.9405 4.05764 11.5313 3.66214 10.087 3.66214C9.04693 3.66214 8.03912 3.86136 7.08697 4.25686C6.16705 4.63772 5.33795 5.18557 4.62603 5.88284C3.91704 6.5746 3.35068 7.39877 2.95904 8.30862C2.55182 9.25491 2.34381 10.2598 2.34381 11.294C2.34381 12.2696 2.54303 13.2862 2.93853 14.3203C3.26959 15.1846 3.7442 16.0811 4.35064 16.9863C5.31158 18.419 6.63287 19.9131 8.27349 21.4277C10.9922 23.9385 13.6846 25.6729 13.7989 25.7432L14.4932 26.1885C14.8008 26.3848 15.1963 26.3848 15.504 26.1885L16.1983 25.7432C16.3125 25.6699 19.002 23.9385 21.7237 21.4277C23.3643 19.9131 24.6856 18.419 25.6465 16.9863C26.253 16.0811 26.7305 15.1846 27.0586 14.3203C27.4541 13.2862 27.6534 12.2696 27.6534 11.294C27.6563 10.2598 27.4483 9.25491 27.0411 8.30862Z" fill="#324EFF"/>
</svg>
