<svg width="99" height="99" viewBox="0 0 99 99" fill="none" xmlns="http://www.w3.org/2000/svg">
<path d="M98.9994 29.2498V84.3745C98.9994 88.2533 97.4586 91.9732 94.7159 94.7159C91.9732 97.4586 88.2533 98.9994 84.3745 98.9994H14.6249C10.7461 98.9994 7.02624 97.4586 4.28354 94.7159C1.54083 91.9732 0 88.2533 0 84.3745V29.2498H98.9994ZM84.3745 0C88.2533 0 91.9732 1.54083 94.7159 4.28354C97.4586 7.02624 98.9994 10.7461 98.9994 14.6249V22.4999H0V14.6249C0 10.7461 1.54083 7.02624 4.28354 4.28354C7.02624 1.54083 10.7461 0 14.6249 0H84.3745Z" fill="#F6F9FE"/>
</svg>
