<svg width="36" height="40" viewBox="0 0 36 40" fill="none" xmlns="http://www.w3.org/2000/svg">
<path d="M18 12C13.5821 12 10 15.5821 10 20C10 24.4179 13.5821 28 18 28C22.4179 28 26 24.4179 26 20C26 15.5821 22.4179 12 18 12ZM14 18.375C14.0046 18.1507 14.0969 17.9371 14.2571 17.7801C14.4174 17.6231 14.6328 17.5352 14.8571 17.5352C15.0815 17.5352 15.2969 17.6231 15.4571 17.7801C15.6174 17.9371 15.7097 18.1507 15.7143 18.375C15.7097 18.5993 15.6174 18.8129 15.4571 18.9699C15.2969 19.1269 15.0815 19.2148 14.8571 19.2148C14.6328 19.2148 14.4174 19.1269 14.2571 18.9699C14.0969 18.8129 14.0046 18.5993 14 18.375ZM18 23.2321C16.4732 23.2321 15.2214 22.0304 15.1429 20.525C15.1419 20.5056 15.1449 20.4863 15.1516 20.4681C15.1584 20.45 15.1687 20.4334 15.1821 20.4193C15.1955 20.4053 15.2115 20.3941 15.2293 20.3865C15.2472 20.3789 15.2663 20.375 15.2857 20.375H16.1446C16.2196 20.375 16.2839 20.4321 16.2893 20.5071C16.3571 21.3911 17.0982 22.0893 18 22.0893C18.9018 22.0893 19.6446 21.3911 19.7107 20.5071C19.7161 20.4321 19.7804 20.375 19.8554 20.375H20.7143C20.7337 20.375 20.7528 20.3789 20.7707 20.3865C20.7885 20.3941 20.8046 20.4053 20.8179 20.4193C20.8313 20.4334 20.8416 20.45 20.8484 20.4681C20.8551 20.4863 20.8581 20.5056 20.8571 20.525C20.7786 22.0304 19.5268 23.2321 18 23.2321ZM21.1429 19.2321C20.9186 19.2276 20.705 19.1352 20.548 18.975C20.391 18.8148 20.303 18.5993 20.303 18.375C20.303 18.1507 20.391 17.9352 20.548 17.775C20.705 17.6148 20.9186 17.5224 21.1429 17.5179C21.3672 17.5224 21.5807 17.6148 21.7377 17.775C21.8947 17.9352 21.9827 18.1507 21.9827 18.375C21.9827 18.5993 21.8947 18.8148 21.7377 18.975C21.5807 19.1352 21.3672 19.2276 21.1429 19.2321Z" fill="white"/>
</svg>
