<svg width="24" height="24" viewBox="0 0 24 24" fill="none" xmlns="http://www.w3.org/2000/svg">
<g clip-path="url(#clip0_774_2073)">
<path fill-rule="evenodd" clip-rule="evenodd" d="M10 2C10.7005 1.9997 11.3887 2.18336 11.996 2.53259C12.6032 2.88182 13.108 3.38439 13.46 3.99L13.558 4.172L14.196 3.804C14.957 3.3644 15.8416 3.18767 16.7132 3.30114C17.5847 3.4146 18.3946 3.81193 19.0177 4.43173C19.6408 5.05154 20.0424 5.8593 20.1605 6.7302C20.2786 7.6011 20.1066 8.48665 19.671 9.25L19.558 9.436L20.196 9.804C20.957 10.2434 21.5521 10.9211 21.8894 11.7325C22.2268 12.5439 22.2875 13.4438 22.0623 14.2932C21.8371 15.1426 21.3385 15.8942 20.6435 16.4318C19.9484 16.9695 19.0957 17.2634 18.217 17.268L18 17.264V18C18.0003 18.8798 17.7105 19.7351 17.1755 20.4335C16.6405 21.1319 15.8902 21.6345 15.0408 21.8634C14.1913 22.0923 13.2901 22.0348 12.4766 21.6997C11.6631 21.3647 10.9828 20.7708 10.541 20.01L10.441 19.828L9.804 20.196C9.04297 20.6356 8.15835 20.8123 7.28683 20.6989C6.41532 20.5854 5.60543 20.1881 4.98233 19.5683C4.35923 18.9485 3.9576 18.1407 3.83951 17.2698C3.72142 16.3989 3.89345 15.5134 4.329 14.75L4.442 14.564L3.804 14.196C3.04301 13.7566 2.44788 13.0789 2.11055 12.2675C1.77323 11.4561 1.71247 10.5562 1.93767 9.70681C2.16288 8.85743 2.6615 8.10585 3.35653 7.56817C4.05155 7.03049 4.90429 6.73663 5.783 6.732L6 6.736V6C6 4.93913 6.42143 3.92172 7.17157 3.17157C7.92172 2.42143 8.93913 2 10 2ZM14.702 12.787L14.634 16.847C14.6315 16.9976 14.5951 17.1457 14.5274 17.2802C14.4597 17.4148 14.3625 17.5323 14.243 17.624L14.134 17.696L12.178 18.826C12.3624 19.2296 12.6756 19.5605 13.0685 19.7668C13.4614 19.973 13.9117 20.0429 14.3486 19.9654C14.7855 19.8879 15.1843 19.6674 15.4823 19.3387C15.7803 19.0099 15.9607 18.5914 15.995 18.149L16 18V13.566L14.702 12.787ZM12.669 14.734L9.119 16.704C8.96809 16.7878 8.79805 16.8311 8.62544 16.8297C8.45284 16.8283 8.28353 16.7822 8.134 16.696L6.178 15.566C5.91226 15.9377 5.78173 16.3891 5.8081 16.8453C5.83448 17.3014 6.01617 17.7348 6.32297 18.0734C6.62978 18.412 7.04322 18.6354 7.49457 18.7064C7.94592 18.7775 8.408 18.6919 8.804 18.464L12.644 16.247L12.669 14.734ZM15.356 9.319L14.033 10.054L17.515 12.142C17.6631 12.231 17.7855 12.3567 17.8705 12.5071C17.9555 12.6575 18.0001 12.8273 18 13V15.259C18.4542 15.3019 18.9094 15.1884 19.2902 14.9373C19.6711 14.6862 19.9548 14.3125 20.0943 13.8782C20.2338 13.4439 20.2208 12.9749 20.0575 12.549C19.8941 12.123 19.5902 11.7656 19.196 11.536L15.356 9.319ZM6 8.74C5.55855 8.69708 5.11535 8.80205 4.74004 9.03841C4.36473 9.27477 4.07859 9.62912 3.92657 10.0458C3.77456 10.4625 3.76529 10.9178 3.90022 11.3403C4.03514 11.7628 4.30662 12.1286 4.672 12.38L4.804 12.463L8.644 14.68L9.967 13.945L6.485 11.857C6.35577 11.7794 6.24574 11.6737 6.16314 11.5476C6.08054 11.4216 6.02751 11.2784 6.008 11.129L6 11V8.741V8.74ZM10 4C9.46957 4 8.96086 4.21071 8.58579 4.58579C8.21071 4.96086 8 5.46957 8 6V10.434L9.298 11.213L9.366 7.153C9.36878 6.98019 9.4163 6.81105 9.50393 6.66208C9.59156 6.51311 9.71631 6.38939 9.866 6.303L11.822 5.174C11.663 4.82406 11.4067 4.52728 11.0836 4.3191C10.7605 4.11092 10.3843 4.00014 10 4ZM17.928 6.268C17.6763 5.83196 17.2694 5.50687 16.7886 5.35765C16.3078 5.20843 15.7883 5.24605 15.334 5.463L15.196 5.536L11.356 7.753L11.331 9.266L14.881 7.296C15.0126 7.22287 15.159 7.18039 15.3093 7.17173C15.4596 7.16307 15.6099 7.18846 15.749 7.246L15.866 7.304L17.823 8.434C18.265 7.814 18.333 6.969 17.928 6.268Z" fill="white"/>
</g>
<defs>
<clipPath id="clip0_774_2073">
<rect width="24" height="24" fill="white"/>
</clipPath>
</defs>
</svg>
