<svg width="44" height="45" viewBox="0 0 44 45" fill="none" xmlns="http://www.w3.org/2000/svg">
<path d="M10 22.4998C10 15.8728 15.373 10.4998 22 10.4998C28.627 10.4998 34 15.8728 34 22.4998C34 29.1268 28.627 34.4998 22 34.4998C20.0341 34.5025 18.0979 34.0203 16.363 33.0958L11.593 34.4528C11.3789 34.5136 11.1524 34.5161 10.937 34.4601C10.7215 34.4041 10.525 34.2916 10.3676 34.1342C10.2102 33.9768 10.0976 33.7802 10.0416 33.5648C9.98564 33.3494 9.98819 33.1229 10.049 32.9088L11.405 28.1388C10.4798 26.4033 9.9972 24.4664 10 22.4998ZM17.5 20.2498C17.5 20.6638 17.836 20.9998 18.25 20.9998H25.75C25.9489 20.9998 26.1397 20.9207 26.2803 20.7801C26.421 20.6394 26.5 20.4487 26.5 20.2498C26.5 20.0508 26.421 19.8601 26.2803 19.7194C26.1397 19.5788 25.9489 19.4998 25.75 19.4998H18.25C18.0511 19.4998 17.8603 19.5788 17.7197 19.7194C17.579 19.8601 17.5 20.0508 17.5 20.2498ZM18.25 23.9998C18.0511 23.9998 17.8603 24.0788 17.7197 24.2194C17.579 24.3601 17.5 24.5508 17.5 24.7498C17.5 24.9487 17.579 25.1394 17.7197 25.2801C17.8603 25.4207 18.0511 25.4998 18.25 25.4998H22.75C22.9489 25.4998 23.1397 25.4207 23.2803 25.2801C23.421 25.1394 23.5 24.9487 23.5 24.7498C23.5 24.5508 23.421 24.3601 23.2803 24.2194C23.1397 24.0788 22.9489 23.9998 22.75 23.9998H18.25Z" fill="white"/>
</svg>
