<svg width="24" height="27" viewBox="0 0 24 27" fill="none" xmlns="http://www.w3.org/2000/svg">
<path d="M19.068 13.8125C19.0274 10.5218 21.7492 8.93746 21.8711 8.85621C20.3274 6.62184 17.9305 6.29684 17.118 6.29684C15.1274 6.09371 13.1774 7.51559 12.1617 7.51559C11.1055 7.51559 9.56175 6.33746 7.8555 6.37809C5.66175 6.41871 3.6305 7.67809 2.53362 9.62809C0.217999 13.6093 1.96487 19.5 4.15862 22.75C5.2555 24.3343 6.5555 26.0812 8.26175 26.0406C9.92737 25.9593 10.5367 24.9843 12.5274 24.9843C14.518 24.9843 15.0867 26.0406 16.793 26C18.5805 25.9593 19.6774 24.4156 20.7336 22.8312C21.993 21.0031 22.5211 19.2156 22.5617 19.1343C22.5211 19.0531 19.1086 17.7531 19.068 13.8125Z" fill="white"/>
<path d="M15.818 4.18438C16.7118 3.0875 17.3212 1.54375 17.1587 0C15.8587 0.040625 14.2743 0.89375 13.3399 1.99063C12.5274 2.96563 11.7962 4.50938 11.9587 6.0125C13.4212 6.09375 14.8837 5.28125 15.818 4.18438Z" fill="white"/>
</svg>
