<svg width="7" height="7" viewBox="0 0 7 7" fill="none" xmlns="http://www.w3.org/2000/svg">
<path d="M2.44765 0.732522C2.80917 -0.244346 4.19083 -0.244346 4.55235 0.732522L4.83643 1.50013C4.95008 1.80724 5.19222 2.04937 5.49932 2.16303L6.26693 2.4471C7.2438 2.80862 7.2438 4.19029 6.26693 4.5518L5.49932 4.83588C5.19222 4.94953 4.95008 5.19167 4.83643 5.49878L4.55235 6.26638C4.19083 7.24325 2.80917 7.24325 2.44765 6.26638L2.16357 5.49878C2.04992 5.19167 1.80778 4.94953 1.50068 4.83588L0.73307 4.5518C-0.243798 4.19029 -0.243798 2.80862 0.73307 2.4471L1.50068 2.16303C1.80778 2.04937 2.04992 1.80724 2.16357 1.50013L2.44765 0.732522Z" fill="#324EFF"/>
</svg>
