<svg width="26" height="25" viewBox="0 0 26 25" fill="none" xmlns="http://www.w3.org/2000/svg">
<path d="M10.0884 2.10413C10.9998 -0.701114 14.9685 -0.701113 15.88 2.10413L16.858 5.11402C17.2656 6.36856 18.4347 7.21795 19.7538 7.21795H22.9186C25.8682 7.21795 27.0946 10.9924 24.7083 12.7261L22.1479 14.5863C21.0807 15.3617 20.6342 16.736 21.0418 17.9906L22.0198 21.0004C22.9313 23.8057 19.7205 26.1384 17.3343 24.4047L14.7739 22.5445C13.7067 21.7691 12.2616 21.7691 11.1945 22.5445L8.63411 24.4047C6.24783 26.1384 3.0371 23.8057 3.94858 21.0004L4.92655 17.9906C5.33418 16.736 4.88763 15.3617 3.82045 14.5863L1.26009 12.7261C-1.12619 10.9924 0.100194 7.21795 3.0498 7.21795H6.21458C7.53369 7.21795 8.70277 6.36856 9.1104 5.11401L10.0884 2.10413Z" fill="#324EFF"/>
</svg>
