<svg width="6" height="6" viewBox="0 0 6 6" fill="none" xmlns="http://www.w3.org/2000/svg">
<path d="M1.92579 0.747739C2.29482 -0.249422 3.70518 -0.249422 4.07421 0.74774L4.20949 1.11328C4.32551 1.42677 4.57267 1.67393 4.88616 1.78995L5.2517 1.92523C6.24886 2.29426 6.24886 3.70463 5.2517 4.07365L4.88616 4.20893C4.57267 4.32495 4.32551 4.57211 4.20949 4.8856L4.07421 5.25114C3.70518 6.2483 2.29482 6.2483 1.92579 5.25114L1.79051 4.8856C1.67449 4.57211 1.42733 4.32495 1.11384 4.20893L0.748298 4.07365C-0.248863 3.70462 -0.248862 2.29426 0.748299 1.92523L1.11384 1.78995C1.42733 1.67393 1.67449 1.42677 1.79051 1.11328L1.92579 0.747739Z" fill="white"/>
</svg>
