<svg width="38" height="35" viewBox="0 0 38 35" fill="none" xmlns="http://www.w3.org/2000/svg">
<path fill-rule="evenodd" clip-rule="evenodd" d="M10.0098 11C10.0098 10.4477 10.4575 10 11.0098 10H27C27.5523 10 28 10.4477 28 11V22.3242C28 23.4288 27.1046 24.3242 26 24.3242H12C10.8954 24.3242 10 23.4288 10 22.3242V11.3242C10 11.2766 10.0033 11.2298 10.0098 11.1839V11ZM12 13.2238V22.3242H26V13.2241L21.1215 18.1026C19.9499 19.2742 18.0504 19.2742 16.8788 18.1026L12 13.2238ZM13.5723 11.9676H24.428L19.7073 16.6884C19.3168 17.0789 18.6836 17.0789 18.2931 16.6884L13.5723 11.9676Z" fill="#979797"/>
</svg>
