<svg width="17" height="16" viewBox="0 0 17 16" fill="none" xmlns="http://www.w3.org/2000/svg">
<path d="M8.5 2C7.83696 2 7.20107 2.26339 6.73223 2.73223C6.26339 3.20107 6 3.83696 6 4.5V8C6 8.66304 6.26339 9.29893 6.73223 9.76777C7.20107 10.2366 7.83696 10.5 8.5 10.5C9.16304 10.5 9.79893 10.2366 10.2678 9.76777C10.7366 9.29893 11 8.66304 11 8V4.5C11 3.83696 10.7366 3.20107 10.2678 2.73223C9.79893 2.26339 9.16304 2 8.5 2ZM4.5 7.5C4.63261 7.5 4.75979 7.55268 4.85355 7.64645C4.94732 7.74021 5 7.86739 5 8C5 8.92826 5.36875 9.8185 6.02513 10.4749C6.6815 11.1313 7.57174 11.5 8.5 11.5C9.42826 11.5 10.3185 11.1313 10.9749 10.4749C11.6313 9.8185 12 8.92826 12 8C12 7.86739 12.0527 7.74021 12.1464 7.64645C12.2402 7.55268 12.3674 7.5 12.5 7.5C12.6326 7.5 12.7598 7.55268 12.8536 7.64645C12.9473 7.74021 13 7.86739 13 8C13.0002 9.10705 12.5923 10.1753 11.8544 11.0005C11.1164 11.8258 10.1002 12.35 9 12.473V13.5C9 13.6326 8.94732 13.7598 8.85355 13.8536C8.75979 13.9473 8.63261 14 8.5 14C8.36739 14 8.24021 13.9473 8.14645 13.8536C8.05268 13.7598 8 13.6326 8 13.5V12.473C6.89981 12.35 5.88356 11.8258 5.14561 11.0005C4.40766 10.1753 3.99979 9.10705 4 8C4 7.86739 4.05268 7.74021 4.14645 7.64645C4.24021 7.55268 4.36739 7.5 4.5 7.5Z" fill="white"/>
</svg>
