<svg width="30" height="30" viewBox="0 0 30 30" fill="none" xmlns="http://www.w3.org/2000/svg">
<path d="M15 13.6249C14.2375 13.6249 13.625 14.2374 13.625 14.9999C13.625 15.7624 14.2375 16.3749 15 16.3749C15.7625 16.3749 16.375 15.7624 16.375 14.9999C16.375 14.2374 15.7625 13.6249 15 13.6249ZM15 2.49993C8.10002 2.49993 2.50003 8.09993 2.50003 14.9999C2.50003 21.8999 8.10002 27.4999 15 27.4999C21.9 27.4999 27.5 21.8999 27.5 14.9999C27.5 8.09993 21.9 2.49993 15 2.49993ZM17.7375 17.7374L7.50002 22.4999L12.2625 12.2624L22.5 7.49993L17.7375 17.7374Z" fill="#E2E3E7"/>
</svg>
