<svg width="6" height="6" viewBox="0 0 6 6" fill="none" xmlns="http://www.w3.org/2000/svg">
<path d="M1.92579 0.747879C2.29482 -0.249283 3.70518 -0.249282 4.07421 0.747879L4.20949 1.11342C4.32551 1.42691 4.57267 1.67407 4.88616 1.79009L5.2517 1.92537C6.24886 2.2944 6.24886 3.70477 5.2517 4.07379L4.88616 4.20907C4.57267 4.32509 4.32551 4.57225 4.20949 4.88574L4.07421 5.25128C3.70518 6.24844 2.29482 6.24844 1.92579 5.25128L1.79051 4.88574C1.67449 4.57225 1.42733 4.32509 1.11384 4.20907L0.748298 4.07379C-0.248863 3.70476 -0.248862 2.2944 0.748299 1.92537L1.11384 1.79009C1.42733 1.67407 1.67449 1.42691 1.79051 1.11342L1.92579 0.747879Z" fill="#E50000"/>
</svg>
