<svg width="38" height="41" viewBox="0 0 38 41" fill="none" xmlns="http://www.w3.org/2000/svg">
<path fill-rule="evenodd" clip-rule="evenodd" d="M25 19C26.6569 19 28 20.3431 28 22V28C28 29.6569 26.6569 31 25 31H13C11.3432 31 10 29.6569 10 28V22C10 20.3431 11.3432 19 13 19V16C13 12.6863 15.6863 10 19 10C22.3137 10 25 12.6863 25 16V19ZM19 12C21.2091 12 23 13.7909 23 16V19H15V16C15 13.7909 16.7909 12 19 12ZM25 21H13C12.4477 21 12 21.4477 12 22V28C12 28.5523 12.4477 29 13 29H25C25.5523 29 26 28.5523 26 28V22C26 21.4477 25.5523 21 25 21Z" fill="#959DAE"/>
</svg>
