<svg width="37" height="44" viewBox="0 0 37 44" fill="none" xmlns="http://www.w3.org/2000/svg">
<path fill-rule="evenodd" clip-rule="evenodd" d="M27 20.5C27 16.6745 24.4728 13.4392 20.9968 12.3726C20.9305 11.0511 19.838 10 18.5 10C17.162 10 16.0695 11.0511 16.0032 12.3726C12.5272 13.4392 10 16.6745 10 20.5V26.5086C10 27.8846 11.1154 29 12.4914 29H24.5086C25.8846 29 27 27.8846 27 26.5086V20.5ZM18.5 33.8C19.8807 33.8 21 32.6807 21 31.3V31.2396C21 30.9968 20.8032 30.8 20.5603 30.8H16.4397C16.1968 30.8 16 30.9968 16 31.2396V31.3C16 32.6807 17.1193 33.8 18.5 33.8Z" fill="#E2E3E7"/>
</svg>
