<svg width="27" height="27" viewBox="0 0 27 27" fill="none" xmlns="http://www.w3.org/2000/svg">
<path d="M25.8944 8.26878C25.2183 6.65518 24.2347 5.18854 22.9985 3.95059C21.766 2.71048 20.3019 1.72452 18.6893 1.04869C17.0374 0.352991 15.2626 -0.00362316 13.4701 2.77513e-05H13.4099C11.5868 0.00906793 9.82393 0.370675 8.16355 1.08184C6.56485 1.76459 5.11451 2.7523 3.89357 3.98976C2.66932 5.22493 1.69702 6.68645 1.03085 8.29288C0.339319 9.9634 -0.0110812 11.7554 0.000267081 13.5633C0.00930726 15.6546 0.50953 17.7308 1.44368 19.5871V24.1674C1.44368 24.9328 2.06444 25.5536 2.82683 25.5536H7.40116C9.26607 26.4946 11.324 26.9898 13.4129 27H13.4762C15.2782 27 17.0229 26.6505 18.6682 25.9664C20.2726 25.2987 21.7312 24.3242 22.9623 23.0977C24.2038 21.8652 25.1802 20.4248 25.8642 18.8187C26.5724 17.1553 26.934 15.3864 26.943 13.5603C26.949 11.7251 26.5935 9.94422 25.8944 8.26878ZM7.4554 14.9465C6.65987 14.9465 6.01199 14.2986 6.01199 13.5C6.01199 12.7015 6.65987 12.0536 7.4554 12.0536C8.25094 12.0536 8.89882 12.7015 8.89882 13.5C8.89882 14.2986 8.25395 14.9465 7.4554 14.9465ZM13.4701 14.9465C12.6746 14.9465 12.0267 14.2986 12.0267 13.5C12.0267 12.7015 12.6746 12.0536 13.4701 12.0536C14.2657 12.0536 14.9135 12.7015 14.9135 13.5C14.9135 14.2986 14.2657 14.9465 13.4701 14.9465ZM19.4849 14.9465C18.6893 14.9465 18.0414 14.2986 18.0414 13.5C18.0414 12.7015 18.6893 12.0536 19.4849 12.0536C20.2804 12.0536 20.9283 12.7015 20.9283 13.5C20.9283 14.2986 20.2804 14.9465 19.4849 14.9465Z" fill="#E2E3E7"/>
</svg>
