<svg width="24" height="24" viewBox="0 0 24 24" fill="none" xmlns="http://www.w3.org/2000/svg">
<path fill-rule="evenodd" clip-rule="evenodd" d="M6.68809 16.9579C7.22544 17.6748 7.88233 18.2551 8.65877 18.6988C9.7394 19.3163 10.9964 19.625 12.4299 19.625C14.1942 19.625 15.6387 19.1619 16.7634 18.2357C17.8882 17.2874 18.627 15.9752 18.9798 14.2991H11.0406V10.7595H23.5449V14.7953C23.2362 16.4052 22.5745 17.8938 21.5601 19.2612C20.5456 20.6285 19.2334 21.7311 17.6235 22.5692C16.0357 23.3852 14.2493 23.7932 12.2645 23.7932C10.0371 23.7932 8.01922 23.2969 6.21083 22.3045C5.50468 21.9035 4.85711 21.4422 4.26813 20.9205L6.68809 16.9579Z" fill="#4285F4"/>
<path fill-rule="evenodd" clip-rule="evenodd" d="M7.28104 6.41843C7.66944 6.02334 8.10666 5.68403 8.59269 5.40051C9.65126 4.78302 10.8642 4.47427 12.2315 4.47427C13.4665 4.47427 14.5471 4.72788 15.4734 5.23511C16.3996 5.74234 17.1274 6.48114 17.6567 7.45149H22.9826C22.2548 5.15793 20.9316 3.38262 19.013 2.12556C17.0943 0.846461 14.8338 0.206909 12.2315 0.206909C10.0262 0.206909 8.0193 0.714141 6.21091 1.7286C5.62994 2.05136 5.08863 2.41728 4.58698 2.82634L7.28104 6.41843Z" fill="#E50000"/>
<path fill-rule="evenodd" clip-rule="evenodd" d="M6.48498 16.6715C6.35241 16.4745 6.22804 16.2681 6.11187 16.0524C5.51642 14.9056 5.2187 13.5603 5.2187 12.0166C5.2187 10.5169 5.51642 9.19372 6.11187 8.04693C6.68762 6.93807 7.47988 6.07664 8.48863 5.46264L6.81986 1.40991C6.6145 1.50991 6.41159 1.61614 6.21111 1.7286C4.42477 2.72101 3.01335 4.12141 1.97683 5.9298C0.96237 7.71613 0.455139 9.74506 0.455139 12.0166C0.455139 14.2881 0.96237 16.317 1.97683 18.1033C2.10139 18.318 2.23137 18.5271 2.36676 18.7306L6.48498 16.6715Z" fill="#FBBC05"/>
<path fill-rule="evenodd" clip-rule="evenodd" d="M19.3119 21.513C18.7913 21.9024 18.2287 22.2545 17.6241 22.5692C16.0362 23.3852 14.2499 23.7932 12.2651 23.7932C10.0377 23.7932 8.01975 23.297 6.21136 22.3046C4.42503 21.2901 3.0136 19.8897 1.97709 18.1034C1.45779 17.1889 1.0714 16.211 0.817932 15.1694L5.21904 12.0627C5.22493 13.5872 5.52262 14.917 6.11212 16.0524C6.72962 17.1992 7.57868 18.0813 8.65931 18.6988C9.73993 19.3163 10.997 19.6251 12.4305 19.6251C13.9838 19.6251 15.2893 19.266 16.3469 18.548L19.3119 21.513Z" fill="#34A853"/>
</svg>
