<svg width="24" height="24" viewBox="0 0 24 24" fill="none" xmlns="http://www.w3.org/2000/svg">
<path d="M20.5106 3.49007C20.3176 3.29845 20.0756 3.16374 19.811 3.10075C19.5464 3.03776 19.2696 3.04892 19.011 3.13301L4.08583 8.11146C3.80902 8.19917 3.56442 8.36695 3.38291 8.59359C3.2014 8.82024 3.09113 9.09559 3.06603 9.38487C3.04092 9.67415 3.1021 9.96438 3.24185 10.2189C3.38159 10.4734 3.59363 10.6808 3.85119 10.8149L10.0436 13.8754L13.1042 20.0883C13.2272 20.3315 13.4154 20.5357 13.6478 20.678C13.8802 20.8203 14.1477 20.8952 14.4202 20.8942H14.5222C14.8141 20.8728 15.0927 20.764 15.322 20.582C15.5512 20.4001 15.7204 20.1534 15.8076 19.8741L20.8575 4.98973C20.9477 4.73258 20.9629 4.4551 20.9015 4.1896C20.8401 3.92411 20.7046 3.68152 20.5106 3.49007ZM4.71833 9.5193L17.746 5.17336L10.5129 12.4064L4.71833 9.5193ZM14.4916 19.2824L11.5943 13.4878L18.8273 6.25475L14.4916 19.2824Z" fill="white"/>
</svg>
