<svg width="24" height="24" viewBox="0 0 24 24" fill="none" xmlns="http://www.w3.org/2000/svg">
<g clip-path="url(#clip0_15_2189)">
<path d="M18.06 3C18.5417 3.00004 19.0072 3.17395 19.371 3.48975C19.7347 3.80556 19.9723 4.24206 20.04 4.719L20.057 4.875L20.932 18.875C20.965 19.4003 20.7897 19.9175 20.4439 20.3143C20.0981 20.7112 19.6099 20.9558 19.085 20.995L18.935 21H5.06598C4.53968 21 4.03457 20.7926 3.66018 20.4227C3.28579 20.0528 3.07229 19.5503 3.06598 19.024L3.06898 18.875L3.94398 4.875C3.97407 4.39407 4.17679 3.94017 4.51485 3.59679C4.85291 3.2534 5.30358 3.04361 5.78398 3.006L5.93998 3H18.06ZM15 7C14.755 7.00003 14.5186 7.08996 14.3356 7.25272C14.1526 7.41547 14.0356 7.63975 14.007 7.883L14 8C14 8.53043 13.7893 9.03914 13.4142 9.41421C13.0391 9.78929 12.5304 10 12 10C11.4695 10 10.9608 9.78929 10.5858 9.41421C10.2107 9.03914 9.99998 8.53043 9.99998 8C9.99998 7.73478 9.89462 7.48043 9.70709 7.29289C9.51955 7.10536 9.2652 7 8.99998 7C8.73476 7 8.48041 7.10536 8.29287 7.29289C8.10534 7.48043 7.99998 7.73478 7.99998 8C7.99998 9.06087 8.42141 10.0783 9.17155 10.8284C9.9217 11.5786 10.9391 12 12 12C13.0608 12 14.0783 11.5786 14.8284 10.8284C15.5786 10.0783 16 9.06087 16 8C16 7.73478 15.8946 7.48043 15.7071 7.29289C15.5195 7.10536 15.2652 7 15 7Z" fill="#E2E3E7"/>
</g>
<defs>
<clipPath id="clip0_15_2189">
<rect width="24" height="24" fill="white"/>
</clipPath>
</defs>
</svg>
