<svg width="24" height="24" viewBox="0 0 24 24" fill="none" xmlns="http://www.w3.org/2000/svg">
<path fill-rule="evenodd" clip-rule="evenodd" d="M6.68754 16.9579C7.22489 17.6748 7.88178 18.2551 8.65822 18.6988C9.73885 19.3163 10.9959 19.625 12.4294 19.625C14.1937 19.625 15.6382 19.1619 16.7629 18.2357C17.8876 17.2874 18.6264 15.9752 18.9793 14.2991H11.04V10.7595H23.5443V14.7953C23.2356 16.4052 22.574 17.8938 21.5595 19.2612C20.5451 20.6285 19.2329 21.7311 17.623 22.5692C16.0351 23.3852 14.2488 23.7932 12.264 23.7932C10.0366 23.7932 8.01867 23.2969 6.21028 22.3045C5.50413 21.9035 4.85656 21.4422 4.26758 20.9205L6.68754 16.9579Z" fill="#4285F4"/>
<path fill-rule="evenodd" clip-rule="evenodd" d="M7.28001 6.41843C7.66841 6.02334 8.10562 5.68403 8.59165 5.40051C9.65022 4.78302 10.8632 4.47427 12.2305 4.47427C13.4655 4.47427 14.5461 4.72788 15.4724 5.23511C16.3986 5.74234 17.1264 6.48114 17.6556 7.45149H22.9816C22.2538 5.15793 20.9306 3.38262 19.0119 2.12556C17.0933 0.846461 14.8328 0.206909 12.2305 0.206909C10.0251 0.206909 8.01826 0.714141 6.20987 1.7286C5.6289 2.05136 5.08759 2.41728 4.58594 2.82634L7.28001 6.41843Z" fill="#E50000"/>
<path fill-rule="evenodd" clip-rule="evenodd" d="M6.48492 16.6715C6.35235 16.4745 6.22798 16.2681 6.11181 16.0524C5.51636 14.9056 5.21864 13.5603 5.21864 12.0166C5.21864 10.5169 5.51636 9.19372 6.11181 8.04693C6.68756 6.93807 7.47981 6.07664 8.48857 5.46264L6.8198 1.40991C6.61444 1.50991 6.41153 1.61614 6.21105 1.7286C4.42471 2.72101 3.01329 4.12141 1.97677 5.9298C0.962309 7.71613 0.455078 9.74506 0.455078 12.0166C0.455078 14.2881 0.962309 16.317 1.97677 18.1033C2.10133 18.318 2.23131 18.5271 2.3667 18.7306L6.48492 16.6715Z" fill="#FBBC05"/>
<path fill-rule="evenodd" clip-rule="evenodd" d="M19.3124 21.513C18.7917 21.9024 18.2291 22.2545 17.6245 22.5692C16.0366 23.3852 14.2503 23.7932 12.2655 23.7932C10.0381 23.7932 8.02018 23.297 6.21179 22.3046C4.42546 21.2901 3.01403 19.8897 1.97752 18.1034C1.45822 17.1889 1.07183 16.211 0.818359 15.1694L5.21947 12.0627C5.22535 13.5872 5.52305 14.917 6.11255 16.0524C6.73005 17.1992 7.57911 18.0813 8.65973 18.6988C9.74035 19.3163 10.9974 19.6251 12.4309 19.6251C13.9843 19.6251 15.2898 19.266 16.3473 18.548L19.3124 21.513Z" fill="#34A853"/>
</svg>
