<svg width="24" height="27" viewBox="0 0 24 27" fill="none" xmlns="http://www.w3.org/2000/svg">
<path fill-rule="evenodd" clip-rule="evenodd" d="M7.09182 -3.11522e-05C5.78627 -3.11522e-05 4.72791 1.05833 4.72791 2.36388V3.35045C2.00901 4.0502 0 6.5183 0 9.45563V20.4872C0 23.9687 2.82229 26.791 6.30376 26.791H17.3353C20.8168 26.791 23.6391 23.9687 23.6391 20.4872V9.45564C23.6391 6.51834 21.6302 4.05026 18.9113 3.35047V2.36391C18.9113 1.05836 17.8529 0 16.5474 0C15.2418 0 14.1835 1.05836 14.1835 2.36391V3.15187H9.45573V2.36388C9.45573 1.05833 8.39737 -3.11522e-05 7.09182 -3.11522e-05ZM4.72791 11.0316C4.72791 10.1612 5.43348 9.45566 6.30385 9.45566H14.1836C15.0539 9.45566 15.7595 10.1612 15.7595 11.0316C15.7595 11.902 15.0539 12.6075 14.1836 12.6075H6.30385C5.43348 12.6075 4.72791 11.902 4.72791 11.0316ZM6.30385 15.7594C5.43348 15.7594 4.72791 16.465 4.72791 17.3354C4.72791 18.2057 5.43348 18.9113 6.30385 18.9113H11.0317C11.902 18.9113 12.6076 18.2057 12.6076 17.3354C12.6076 16.465 11.902 15.7594 11.0317 15.7594H6.30385Z" fill="#324EFF"/>
</svg>
