<svg width="25" height="25" viewBox="0 0 25 25" fill="none" xmlns="http://www.w3.org/2000/svg">
<path d="M18.3594 8.59363H13.2812V15.6737C13.2812 15.8809 13.1989 16.0796 13.0524 16.2261C12.9059 16.3727 12.7072 16.455 12.5 16.455C12.2928 16.455 12.0941 16.3727 11.9476 16.2261C11.8011 16.0796 11.7188 15.8809 11.7188 15.6737V8.59363H6.64062C5.91566 8.59441 5.22061 8.88274 4.70799 9.39537C4.19536 9.908 3.90703 10.603 3.90625 11.328V20.703C3.90703 21.428 4.19536 22.123 4.70799 22.6356C5.22061 23.1483 5.91566 23.4366 6.64062 23.4374H18.3594C19.0843 23.4366 19.7794 23.1483 20.292 22.6356C20.8046 22.123 21.093 21.428 21.0938 20.703V11.328C21.093 10.603 20.8046 9.908 20.292 9.39537C19.7794 8.88274 19.0843 8.59441 18.3594 8.59363ZM13.2812 4.22986L15.854 6.80213C16.0017 6.94246 16.1984 7.01953 16.4021 7.01692C16.6058 7.01432 16.8005 6.93223 16.9445 6.78817C17.0886 6.6441 17.1707 6.44946 17.1733 6.24574C17.1759 6.04202 17.0988 5.84534 16.9585 5.69764L13.0522 1.79139C12.9057 1.64498 12.7071 1.56274 12.5 1.56274C12.2929 1.56274 12.0943 1.64498 11.9478 1.79139L8.0415 5.69764C7.90118 5.84534 7.8241 6.04202 7.82671 6.24574C7.82932 6.44946 7.9114 6.6441 8.05547 6.78817C8.19953 6.93223 8.39417 7.01432 8.59789 7.01692C8.80161 7.01953 8.99829 6.94246 9.146 6.80213L11.7188 4.22986V8.59363H13.2812V4.22986Z" fill="#F6F9FE"/>
</svg>
