<svg width="32" height="34" viewBox="0 0 32 34" fill="none" xmlns="http://www.w3.org/2000/svg">
<g clip-path="url(#clip0_0_62)">
<path d="M19.992 11.2355C19.362 10.5174 18.2232 10.2096 16.7663 10.2096H12.538C12.3938 10.2096 12.2544 10.261 12.1448 10.3546C12.0352 10.4482 11.9626 10.5779 11.94 10.7202L10.1794 21.8862C10.1444 22.1064 10.3149 22.3058 10.5381 22.3058H13.1484L13.804 18.1476L13.7837 18.2778C13.8304 17.9838 14.0818 17.767 14.3795 17.767H15.6199C18.0568 17.767 19.9649 16.7773 20.5223 13.914C20.5388 13.8293 20.5531 13.7469 20.5655 13.6664C20.4952 13.6291 20.4952 13.6291 20.5655 13.6664C20.7315 12.6081 20.5644 11.8877 19.992 11.2355Z" fill="#27346A"/>
<path d="M14.8029 13.2851C14.8742 13.2511 14.9523 13.2335 15.0313 13.2336H18.3462C18.7388 13.2336 19.1049 13.2591 19.4395 13.313C19.5331 13.3279 19.6262 13.3457 19.7187 13.3664C19.8499 13.3954 19.9795 13.4308 20.1071 13.4725C20.2716 13.5275 20.4248 13.5914 20.5656 13.6664C20.7315 12.6077 20.5644 11.8877 19.992 11.2355C19.3616 10.5174 18.2232 10.2096 16.7663 10.2096H12.5376C12.2399 10.2096 11.9866 10.4263 11.94 10.7202L10.1794 21.8858C10.1444 22.1064 10.3149 22.3055 10.5377 22.3055H13.1485L14.5086 13.6803C14.522 13.5955 14.5557 13.5152 14.607 13.4464C14.6583 13.3776 14.7255 13.3222 14.8029 13.2851Z" fill="#27346A"/>
<path d="M20.5225 13.9139C19.9651 16.7768 18.057 17.767 15.6201 17.767H14.3793C14.0816 17.767 13.8302 17.9837 13.784 18.2777L12.9684 23.448C12.9379 23.6407 13.0869 23.8153 13.2819 23.8153H15.4824C15.6084 23.8152 15.7303 23.7702 15.8262 23.6883C15.922 23.6065 15.9855 23.4931 16.0052 23.3686L16.0266 23.2564L16.4413 20.628L16.468 20.4827C16.4877 20.3582 16.5512 20.2448 16.647 20.1629C16.7429 20.081 16.8647 20.036 16.9908 20.036H17.3201C19.4518 20.036 21.1209 19.17 21.6086 16.6654C21.8122 15.6187 21.7069 14.7449 21.1683 14.131C21.0049 13.9451 20.8021 13.7916 20.5657 13.6663C20.553 13.7472 20.5391 13.8292 20.5225 13.9139Z" fill="#2790C3"/>
<path d="M19.9811 13.4339C19.8942 13.4085 19.8065 13.386 19.7181 13.3665C19.6255 13.3461 19.5324 13.3284 19.4388 13.3134C19.1039 13.2592 18.738 13.2336 18.3451 13.2336H15.0306C14.9515 13.2334 14.8734 13.2512 14.8022 13.2856C14.7247 13.3226 14.6574 13.3779 14.6061 13.4467C14.5548 13.5156 14.5211 13.5959 14.5078 13.6807L13.8033 18.1476L13.783 18.2779C13.8293 17.9839 14.0807 17.7671 14.3784 17.7671H15.6193C18.0561 17.7671 19.9642 16.7773 20.5216 13.9141C20.5382 13.8294 20.5521 13.7473 20.5649 13.6664C20.4237 13.5919 20.271 13.5275 20.1064 13.473C20.0649 13.4592 20.0232 13.4462 19.9812 13.4339" fill="#1F264F"/>
</g>
<defs>
<clipPath id="clip0_0_62">
<rect width="11.3778" height="13.4222" fill="white" transform="translate(10.1728 10.1728) scale(1.01728)"/>
</clipPath>
</defs>
</svg>
