<svg width="22" height="22" viewBox="0 0 22 22" fill="none" xmlns="http://www.w3.org/2000/svg">
<path d="M16.5002 16.5C16.8649 16.5 17.2146 16.3551 17.4725 16.0973C17.7304 15.8394 17.8752 15.4897 17.8752 15.125V11.7672C17.8752 11.4026 17.7304 11.0528 17.4725 10.795C17.2146 10.5371 16.8649 10.3923 16.5002 10.3923H14.5917C14.5917 9.90963 14.6206 9.42563 14.677 8.943C14.7622 8.4315 14.9052 7.97638 15.1032 7.579C15.3026 7.18025 15.5584 6.86812 15.8719 6.63987C16.184 6.38412 16.5814 6.25625 17.0654 6.25625V4.125C16.2692 4.125 15.5735 4.2955 14.9754 4.6365C14.3824 4.97404 13.8727 5.44012 13.4835 6.0005C13.0929 6.61831 12.805 7.29533 12.631 8.00525C12.4557 8.78867 12.3699 9.58947 12.3752 10.3923V15.125C12.3752 15.4897 12.5201 15.8394 12.778 16.0973C13.0358 16.3551 13.3856 16.5 13.7502 16.5H16.5002ZM8.25024 16.5C8.61491 16.5 8.96465 16.3551 9.22251 16.0973C9.48037 15.8394 9.62524 15.4897 9.62524 15.125V11.7672C9.62524 11.4026 9.48037 11.0528 9.22251 10.795C8.96465 10.5371 8.61491 10.3923 8.25024 10.3923H6.34174C6.34174 9.90963 6.37061 9.42563 6.42699 8.943C6.51224 8.4315 6.65524 7.97638 6.85324 7.579C7.05261 7.18025 7.30836 6.86812 7.62186 6.63987C7.93399 6.38412 8.33136 6.25625 8.81536 6.25625V4.125C8.01924 4.125 7.32349 4.2955 6.72536 4.6365C6.13244 4.97404 5.62267 5.44012 5.23349 6.0005C4.84289 6.61831 4.55499 7.29533 4.38099 8.00525C4.20566 8.78867 4.11986 9.58947 4.12524 10.3923V15.125C4.12524 15.4897 4.2701 15.8394 4.52797 16.0973C4.78583 16.3551 5.13557 16.5 5.50024 16.5H8.25024Z" fill="#F6F9FE"/>
</svg>
