<svg width="33" height="33" viewBox="0 0 33 33" fill="none" xmlns="http://www.w3.org/2000/svg">
<path fill-rule="evenodd" clip-rule="evenodd" d="M30.25 14.1791C30.25 12.0373 29.3138 10.0025 27.6873 8.60906L20.6536 2.58319C19.0427 0.972276 16.4309 0.972275 14.82 2.58319L8.07637 8.33189C6.44165 9.72544 5.49998 11.7656 5.49998 13.9137V22.9233C5.49998 25.5812 7.65461 27.7358 10.3125 27.7358C12.9704 27.7358 15.125 25.5812 15.125 22.9233V22.2358C15.125 20.717 16.3562 19.4858 17.875 19.4858C19.3938 19.4858 20.625 20.717 20.625 22.2358V22.9233C20.625 25.5812 22.7796 27.7358 25.4375 27.7358C28.0953 27.7358 30.25 25.5812 30.25 22.9233V14.1791ZM16.7645 4.52773L10.872 9.46871C9.20996 10.8623 8.24998 12.9201 8.24998 15.089V22.9233C8.24998 24.0624 9.1734 24.9858 10.3125 24.9858C11.4516 24.9858 12.375 24.0624 12.375 22.9233V22.2358C12.375 19.1983 14.8374 16.7358 17.875 16.7358C20.9125 16.7358 23.375 19.1983 23.375 22.2358V22.9233C23.375 24.0624 24.2984 24.9858 25.4375 24.9858C26.5766 24.9858 27.5 24.0624 27.5 22.9233V15.3521C27.5 13.1908 26.5467 11.1395 24.8947 9.74587L18.7091 4.52773C18.1721 3.99076 17.3015 3.99076 16.7645 4.52773Z" fill="#324EFF"/>
<path d="M6.87499 24.0625V12.375V11.6875V11L16.5 2.06251L27.5 8.9375L29.5625 15.125C29.3333 18.5625 28.325 23.375 26.125 26.125C23.375 29.5625 21.9236 23.375 21.3125 20.625C20.2125 15.675 19.4792 17.1875 19.25 18.5625L14.4375 19.9375C14.2083 21.7708 13.2 22.6875 11 25.4375C8.79999 28.1875 7.33332 25.6667 6.87499 24.0625Z" fill="#324EFF"/>
</svg>
