<svg width="24" height="27" viewBox="0 0 24 27" fill="none" xmlns="http://www.w3.org/2000/svg">
<path d="M19.0673 13.8125C19.0266 10.5218 21.7485 8.93746 21.8704 8.85621C20.3266 6.62184 17.9298 6.29684 17.1173 6.29684C15.1266 6.09371 13.1766 7.51559 12.161 7.51559C11.1048 7.51559 9.56102 6.33746 7.85477 6.37809C5.66102 6.41871 3.62977 7.67809 2.53289 9.62809C0.217267 13.6093 1.96414 19.5 4.15789 22.75C5.25477 24.3343 6.55477 26.0812 8.26102 26.0406C9.92664 25.9593 10.536 24.9843 12.5266 24.9843C14.5173 24.9843 15.086 26.0406 16.7923 26C18.5798 25.9593 19.6766 24.4156 20.7329 22.8312C21.9923 21.0031 22.5204 19.2156 22.561 19.1343C22.5204 19.0531 19.1079 17.7531 19.0673 13.8125Z" fill="#FDFDFE"/>
<path d="M15.8177 4.18438C16.7115 3.0875 17.3209 1.54375 17.1584 0C15.8584 0.040625 14.274 0.89375 13.3396 1.99063C12.5271 2.96563 11.7959 4.50938 11.9584 6.0125C13.4209 6.09375 14.8834 5.28125 15.8177 4.18438Z" fill="#FDFDFE"/>
</svg>
