<svg width="41" height="37" viewBox="0 0 41 37" fill="none" xmlns="http://www.w3.org/2000/svg">
<g clip-path="url(#clip0_0_208)">
<path d="M13.8178 26.2431V25.1627C13.8178 24.7484 13.5656 24.4784 13.1334 24.4784C12.9173 24.4784 12.6832 24.5504 12.5211 24.7845C12.3951 24.5864 12.215 24.4784 11.9449 24.4784C11.7648 24.4784 11.5848 24.5323 11.4407 24.7305V24.5144H11.0625V26.2431H11.4407V25.2887C11.4407 24.9826 11.6028 24.8385 11.8549 24.8385C12.1069 24.8385 12.2331 25.0006 12.2331 25.2887V26.2431H12.6113V25.2887C12.6113 24.9826 12.7912 24.8385 13.0253 24.8385C13.2775 24.8385 13.4035 25.0006 13.4035 25.2887V26.2431H13.8178ZM19.4181 24.5144H18.8059V23.9922H18.4278V24.5144H18.0856V24.8565H18.4277V25.6489C18.4277 26.0451 18.5898 26.2791 19.022 26.2791C19.1841 26.2791 19.3641 26.2251 19.4902 26.1531L19.3821 25.8289C19.2741 25.901 19.1481 25.919 19.058 25.919C18.8779 25.919 18.8059 25.811 18.8059 25.6308V24.8565H19.4181V24.5144ZM22.6236 24.4783C22.4075 24.4783 22.2635 24.5864 22.1734 24.7305V24.5144H21.7952V26.2431H22.1734V25.2707C22.1734 24.9826 22.2994 24.8205 22.5335 24.8205C22.6055 24.8205 22.6956 24.8386 22.7676 24.8565L22.8757 24.4964C22.8036 24.4784 22.6956 24.4784 22.6236 24.4784V24.4783ZM17.7795 24.6584C17.5993 24.5323 17.3472 24.4784 17.0771 24.4784C16.645 24.4784 16.3569 24.6944 16.3569 25.0366C16.3569 25.3248 16.5729 25.4868 16.9511 25.5408L17.1312 25.5589C17.3293 25.5948 17.4373 25.6489 17.4373 25.7389C17.4373 25.8649 17.2933 25.955 17.0411 25.955C16.789 25.955 16.5909 25.8649 16.4648 25.775L16.2848 26.0631C16.4829 26.2071 16.753 26.2791 17.0231 26.2791C17.5273 26.2791 17.8155 26.0451 17.8155 25.7209C17.8155 25.4148 17.5814 25.2527 17.2212 25.1987L17.0411 25.1806C16.879 25.1626 16.753 25.1267 16.753 25.0186C16.753 24.8925 16.879 24.8205 17.0771 24.8205C17.2933 24.8205 17.5093 24.9105 17.6174 24.9646L17.7795 24.6584ZM27.8279 24.4784C27.6117 24.4784 27.4677 24.5864 27.3776 24.7305V24.5144H26.9994V26.2431H27.3776V25.2707C27.3776 24.9826 27.5037 24.8205 27.7377 24.8205C27.8098 24.8205 27.8999 24.8386 27.9719 24.8565L28.08 24.4964C28.0079 24.4784 27.8999 24.4784 27.8279 24.4784ZM23.0017 25.3787C23.0017 25.901 23.3619 26.2791 23.9202 26.2791C24.1722 26.2791 24.3523 26.2251 24.5324 26.0811L24.3523 25.775C24.2083 25.883 24.0642 25.937 23.9021 25.937C23.596 25.937 23.3799 25.7209 23.3799 25.3787C23.3799 25.0546 23.596 24.8385 23.9021 24.8205C24.0642 24.8205 24.2083 24.8745 24.3523 24.9826L24.5324 24.6765C24.3523 24.5323 24.1722 24.4784 23.9202 24.4784C23.3619 24.4784 23.0017 24.8565 23.0017 25.3787ZM26.4953 25.3787V24.5144H26.1171V24.7305C25.991 24.5684 25.811 24.4784 25.5769 24.4784C25.0907 24.4784 24.7125 24.8565 24.7125 25.3787C24.7125 25.901 25.0907 26.2791 25.5769 26.2791C25.8289 26.2791 26.0091 26.1891 26.1171 26.027V26.2431H26.4953V25.3787ZM25.1086 25.3787C25.1086 25.0726 25.3067 24.8205 25.6308 24.8205C25.937 24.8205 26.1531 25.0546 26.1531 25.3787C26.1531 25.6849 25.937 25.937 25.6308 25.937C25.3067 25.9189 25.1086 25.6849 25.1086 25.3787ZM20.5887 24.4784C20.0845 24.4784 19.7243 24.8385 19.7243 25.3787C19.7243 25.919 20.0844 26.2791 20.6067 26.2791C20.8588 26.2791 21.1109 26.2071 21.309 26.0451L21.1289 25.775C20.9848 25.883 20.8048 25.955 20.6247 25.955C20.3906 25.955 20.1565 25.847 20.1024 25.5408H21.381V25.3968C21.3991 24.8385 21.0749 24.4784 20.5886 24.4784H20.5887ZM20.5887 24.8025C20.8227 24.8025 20.9849 24.9466 21.0208 25.2167H20.1205C20.1565 24.9826 20.3186 24.8025 20.5887 24.8025ZM29.9708 25.3787V23.8301H29.5926V24.7305C29.4665 24.5684 29.2865 24.4784 29.0524 24.4784C28.5662 24.4784 28.188 24.8565 28.188 25.3787C28.188 25.901 28.5662 26.2791 29.0524 26.2791C29.3045 26.2791 29.4846 26.1891 29.5926 26.027V26.2431H29.9708V25.3787ZM28.5842 25.3787C28.5842 25.0726 28.7822 24.8205 29.1064 24.8205C29.4126 24.8205 29.6286 25.0546 29.6286 25.3787C29.6286 25.6849 29.4126 25.937 29.1064 25.937C28.7822 25.9189 28.5842 25.6849 28.5842 25.3787ZM15.9426 25.3787V24.5144H15.5645V24.7305C15.4384 24.5684 15.2583 24.4784 15.0242 24.4784C14.538 24.4784 14.1598 24.8565 14.1598 25.3787C14.1598 25.901 14.538 26.2791 15.0242 26.2791C15.2764 26.2791 15.4564 26.1891 15.5645 26.027V26.2431H15.9426V25.3787ZM14.538 25.3787C14.538 25.0726 14.7361 24.8205 15.0602 24.8205C15.3664 24.8205 15.5825 25.0546 15.5825 25.3787C15.5825 25.6849 15.3664 25.937 15.0602 25.937C14.7361 25.9189 14.538 25.6849 14.538 25.3787Z" fill="white"/>
<path d="M17.6523 11.3867H23.3248V21.5792H17.6523V11.3867Z" fill="#FF5F00"/>
<path d="M18.0136 16.4828C18.0136 14.412 18.9859 12.5751 20.4806 11.3866C19.3822 10.5222 17.9956 10 16.4829 10C12.8992 10 10 12.8992 10 16.4828C10 20.0664 12.8992 22.9657 16.4828 22.9657C17.9955 22.9657 19.3821 22.4435 20.4806 21.579C18.9859 20.4085 18.0136 18.5537 18.0136 16.4828Z" fill="#EB001B"/>
<path d="M30.9786 16.4828C30.9786 20.0664 28.0794 22.9657 24.4958 22.9657C22.9831 22.9657 21.5965 22.4435 20.498 21.579C22.0107 20.3906 22.9651 18.5537 22.9651 16.4828C22.9651 14.412 21.9927 12.5751 20.498 11.3866C21.5964 10.5222 22.9831 10 24.4958 10C28.0794 10 30.9787 12.9173 30.9787 16.4828H30.9786Z" fill="#F79E1B"/>
</g>
<defs>
<clipPath id="clip0_0_208">
<rect width="21" height="16.3242" fill="white" transform="translate(10 10)"/>
</clipPath>
</defs>
</svg>
