<svg width="24" height="27" viewBox="0 0 24 27" fill="none" xmlns="http://www.w3.org/2000/svg">
<path fill-rule="evenodd" clip-rule="evenodd" d="M7.09182 0C5.78627 0 4.72791 1.05836 4.72791 2.36391V3.35048C2.00901 4.05023 0 6.51833 0 9.45567V20.4873C0 23.9687 2.82229 26.791 6.30376 26.791H17.3353C20.8168 26.791 23.6391 23.9687 23.6391 20.4873V9.45567C23.6391 6.51837 21.6302 4.05029 18.9113 3.3505V2.36394C18.9113 1.05839 17.8529 3.11522e-05 16.5474 3.11522e-05C15.2418 3.11522e-05 14.1835 1.05839 14.1835 2.36394V3.1519H9.45573V2.36391C9.45573 1.05836 8.39737 0 7.09182 0ZM4.72791 11.0316C4.72791 10.1613 5.43348 9.45569 6.30385 9.45569H14.1836C15.0539 9.45569 15.7595 10.1613 15.7595 11.0316C15.7595 11.902 15.0539 12.6076 14.1836 12.6076H6.30385C5.43348 12.6076 4.72791 11.902 4.72791 11.0316ZM6.30385 15.7595C5.43348 15.7595 4.72791 16.465 4.72791 17.3354C4.72791 18.2058 5.43348 18.9113 6.30385 18.9113H11.0317C11.902 18.9113 12.6076 18.2058 12.6076 17.3354C12.6076 16.465 11.902 15.7595 11.0317 15.7595H6.30385Z" fill="#E2E3E7"/>
</svg>
